<?xml version="1.0" standalone="no"?>
<!DOCTYPE svg PUBLIC "-//W3C//DTD SVG 20010904//EN"
 "http://www.w3.org/TR/2001/REC-SVG-20010904/DTD/svg10.dtd">
<svg version="1.0" xmlns="http://www.w3.org/2000/svg"
 width="512.000000pt" height="512.000000pt" viewBox="0 0 512.000000 512.000000"
 preserveAspectRatio="xMidYMid meet">
<metadata>
Created by potrace 1.14, written by Peter Selinger 2001-2017
</metadata>
<g transform="translate(0.000000,512.000000) scale(0.100000,-0.100000)"
fill="#000000" stroke="none">
<path d="M2315 5109 c-722 -75 -1365 -435 -1799 -1009 -504 -667 -649 -1543
-386 -2340 127 -386 334 -722 621 -1009 404 -404 903 -649 1494 -733 118 -17
512 -17 630 0 591 84 1090 329 1494 733 404 404 649 903 733 1494 17 118 17
512 0 630 -84 591 -329 1090 -733 1494 -394 394 -882 639 -1449 726 -126 19
-477 28 -605 14z"/>
</g>
</svg>
